<svg width="31" height="27" viewBox="0 0 31 27" fill="none" xmlns="http://www.w3.org/2000/svg">
<path d="M2.03955 1.56689H28.8409" stroke="black" stroke-width="3" stroke-linecap="round"/>
<path d="M29.1525 2.50195V24.4209" stroke="black" stroke-width="3" stroke-linecap="round"/>
<path d="M2.45508 24.9402H29.2564" stroke="black" stroke-width="3" stroke-linecap="round"/>
<path d="M2.3512 1.87866V24.8364" stroke="black" stroke-width="3" stroke-linecap="round"/>
<path d="M2.14343 8.11133C2.80575 8.77365 3.78983 9.17591 4.60195 9.61183C5.79331 10.2513 6.96065 10.9173 8.2147 11.4298C9.19333 11.8296 10.2323 12.1586 11.1811 12.6244C13.0247 13.5294 14.6278 14.8145 16.4213 15.7928C16.6421 15.9132 16.7734 15.8996 16.9984 15.7524C17.6998 15.2933 18.3887 14.8044 19.0876 14.3384C20.1824 13.6085 21.3455 13.0248 22.5272 12.4512C23.5961 11.9324 24.5965 11.2944 25.7129 10.8757C26.873 10.4407 27.96 10.0112 29.0429 9.41561C29.5301 9.14765 29.4456 9.15014 28.9447 9.15014" stroke="black" stroke-width="3" stroke-linecap="round"/>
</svg>
