<svg width="246" height="267" viewBox="0 0 246 267" fill="none" xmlns="http://www.w3.org/2000/svg">
<path d="M246 17.2774C246 7.73897 238.268 0 228.739 0C221.768 0 215.768 4.151 213.044 10.1015H32.9559C30.2316 4.151 24.2316 0 17.261 0C7.73162 0 0 7.73897 0 17.2774C0 26.8159 7.72059 34.5549 17.261 34.5549L56.8566 121.461C55.5551 123.89 54.8162 126.65 54.8162 129.597C54.8162 137.811 60.5515 144.678 68.2279 146.433L110.118 238.385C107.493 241.421 105.882 245.362 105.882 249.689C105.882 259.228 113.603 266.967 123.143 266.967V267L123.176 266.967C132.695 266.956 140.415 259.228 140.415 249.689C140.415 245.351 138.805 241.398 136.169 238.363L177.739 146.864C177.739 146.864 177.794 146.864 177.816 146.864C187.346 146.864 195.077 139.125 195.077 129.586C195.077 125.215 193.445 121.229 190.765 118.182L228.761 34.5438C238.279 34.5328 246 26.8049 246 17.2664V17.2774ZM123.132 232.379L82.5551 143.309C86.6691 140.152 89.3382 135.195 89.3382 129.597C89.3382 128.46 89.2169 127.356 89.0073 126.285L123.419 101.611L160.61 128.273C160.577 128.714 160.544 129.156 160.544 129.597C160.544 133.892 162.121 137.822 164.713 140.847L123.121 232.379H123.132ZM111.121 92.7793L80.6581 114.616C78.1323 113.159 75.1985 112.32 72.0772 112.32C70.886 112.32 69.7279 112.441 68.6029 112.673L34.5221 37.8669L111.121 92.7793ZM40.4338 24.4534H206.415L123.419 83.9474L40.4338 24.4534ZM177.684 112.331C173.923 112.364 170.471 113.601 167.647 115.665L135.739 92.7904L211.114 38.75L177.684 112.331Z" fill="white"/>
</svg>
